<?xml version="1.0"?>
<svg xmlns="http://www.w3.org/2000/svg" xmlns:xlink="http://www.w3.org/1999/xlink" xmlns:svgjs="http://svgjs.com/svgjs" version="1.1" width="512" height="512" x="0" y="0" viewBox="0 0 512 512" style="enable-background:new 0 0 512 512" xml:space="preserve"><g><g xmlns="http://www.w3.org/2000/svg" id="Solid"><path d="m464 24h-128a24 24 0 0 0 0 48h70.059l-230.059 230.059a24 24 0 0 0 33.941 33.941l230.059-230.059v70.059a24 24 0 0 0 48 0v-128a24 24 0 0 0 -24-24z" fill="#ffffff" data-original="#000000" style=""/><path d="m464 248a24 24 0 0 0 -24 24v168h-368v-368h168a24 24 0 0 0 24-24 24 24 0 0 0 -24-24h-192a24 24 0 0 0 -24 24v416a24 24 0 0 0 24 24h416a24 24 0 0 0 24-24v-192a24 24 0 0 0 -24-24z" fill="#ffffff" data-original="#000000" style=""/></g></g></svg>
