<?xml version="1.0" encoding="UTF-8" standalone="no"?>
<svg
   xmlns:dc="http://purl.org/dc/elements/1.1/"
   xmlns:cc="http://creativecommons.org/ns#"
   xmlns:rdf="http://www.w3.org/1999/02/22-rdf-syntax-ns#"
   xmlns:svg="http://www.w3.org/2000/svg"
   xmlns="http://www.w3.org/2000/svg"
   xmlns:sodipodi="http://sodipodi.sourceforge.net/DTD/sodipodi-0.dtd"
   xmlns:inkscape="http://www.inkscape.org/namespaces/inkscape"
   version="1.1"
   width="512"
   height="512"
   x="0"
   y="0"
   viewBox="0 0 512 512"
   style="enable-background:new 0 0 512 512"
   xml:space="preserve"
   id="svg9"
   sodipodi:docname="minimize.svg"
   inkscape:version="1.0.1 (0767f8302a, 2020-10-17)"><metadata
     id="metadata15"><rdf:RDF><cc:Work
         rdf:about=""><dc:format>image/svg+xml</dc:format><dc:type
           rdf:resource="http://purl.org/dc/dcmitype/StillImage" /><dc:title></dc:title></cc:Work></rdf:RDF></metadata><defs
     id="defs13" /><sodipodi:namedview
     pagecolor="#ffffff"
     bordercolor="#666666"
     borderopacity="1"
     objecttolerance="10"
     gridtolerance="10"
     guidetolerance="10"
     inkscape:pageopacity="0"
     inkscape:pageshadow="2"
     inkscape:window-width="1848"
     inkscape:window-height="1016"
     id="namedview11"
     showgrid="false"
     inkscape:zoom="1.6835938"
     inkscape:cx="256"
     inkscape:cy="256"
     inkscape:window-x="72"
     inkscape:window-y="27"
     inkscape:window-maximized="1"
     inkscape:current-layer="svg9" /><g
     id="g7"
     style="fill:#ffffff"
     transform="rotate(180,256,256)"><g
       id="Solid"
       style="fill:#ffffff"><path
         d="M 464,24 H 336 a 24,24 0 0 0 0,48 h 70.059 L 176,302.059 A 24,24 0 0 0 209.941,336 L 440,105.941 V 176 a 24,24 0 0 0 48,0 V 48 A 24,24 0 0 0 464,24 Z"
         fill="#ffffff"
         data-original="#000000"
         style="fill:#ffffff"
         id="path2" /><path
         d="m 464,248 a 24,24 0 0 0 -24,24 V 440 H 72 V 72 H 240 A 24,24 0 0 0 264,48 24,24 0 0 0 240,24 H 48 A 24,24 0 0 0 24,48 v 416 a 24,24 0 0 0 24,24 h 416 a 24,24 0 0 0 24,-24 V 272 a 24,24 0 0 0 -24,-24 z"
         fill="#ffffff"
         data-original="#000000"
         style="fill:#ffffff"
         id="path4" /></g></g></svg>
